Coordinates
version=1
nRows=15
nColumns=42
inDegrees=yes

Units are S.I. units (second, meters, Newtons, ...)
If the header above contains a line with 'inDegrees', this indicates whether rotational values are in degrees (yes) or radians (no).

endheader
time	pelvis_tilt	pelvis_list	pelvis_rotation	pelvis_tx	pelvis_ty	pelvis_tz	hip_flexion_r	hip_adduction_r	hip_rotation_r	knee_angle_r	knee_adduction_r	knee_angle_r_beta	ankle_angle_r	subtalar_angle_r	mtp_angle_r	hip_flexion_l	hip_adduction_l	hip_rotation_l	knee_angle_l	knee_adduction_l	knee_angle_l_beta	ankle_angle_l	subtalar_angle_l	mtp_angle_l	lumbar_extension	lumbar_bending	lumbar_rotation	arm_flex_r	arm_add_r	arm_rot_r	elbow_flex_r	pro_sup_r	wrist_flex_r	wrist_dev_r	arm_flex_l	arm_add_l	arm_rot_l	elbow_flex_l	pro_sup_l	wrist_flex_l	wrist_dev_l
      0.66000000	     11.35326261	     -4.25900793	     -9.60798985	     -0.43780724	      0.84068562	     -0.17759575	    -28.53064369	      5.22269252	     -5.07434409	     14.51601003	      0.25788931	      0.25335217	     24.95620936	      3.18748324	     -7.61507478	      9.64779055	     -5.34675049	    -14.64455845	      8.52175012	      6.55159669	      0.14873260	      7.44311665	     -4.72237602	     -7.61507478	    -23.33631237	      0.47959077	     15.20729302	     22.90665779	    -11.57156047	     10.29339718	     48.93365481	     90.00000001	      0.00000000	      0.00000000	    -10.06109529	     -0.66968046	    -19.99001945	     18.12273315	     90.00000001	      0.00000000	      0.00000000
      0.67000000	     11.25661820	     -4.01313696	     -9.74764998	     -0.42609291	      0.84023158	     -0.17736596	    -28.59992429	      4.70670869	     -5.13722877	     15.78165460	      0.12490863	      0.27544183	     24.29292600	      3.27396602	     -7.61257075	      9.61804049	     -4.85415412	    -14.20534921	      9.66604541	      6.34902800	      0.16870432	      7.11159916	     -5.05324384	     -7.61257075	    -23.13729676	      0.10062922	     15.27942420	     22.29468933	    -11.47509792	     10.09318122	     48.36609508	     90.00000001	      0.00000000	      0.00000000	     -9.89541675	     -0.74515025	    -20.15933179	     18.06440264	     90.00000001	      0.00000000	      0.00000000
      0.68000000	     11.22102734	     -3.76896089	     -9.82892096	     -0.41432779	      0.84012888	     -0.17716609	    -28.62838105	      4.20630209	     -5.10503217	     17.22284526	      0.02135160	      0.30059536	     23.44491146	      3.29706813	     -7.61061018	      9.50048630	     -4.36767836	    -13.68968166	     10.79139100	      6.16084000	      0.18834530	      6.82690945	     -5.28040011	     -7.61061018	    -23.01825809	     -0.28077305	     15.30815536	     21.60992898	    -11.37194785	      9.86711535	     47.76389690	     90.00000001	      0.00000000	      0.00000000	     -9.62713859	     -0.87024720	    -20.26167443	     18.03530566	     90.00000001	      0.00000000	      0.00000000
      0.69000000	     11.24335482	     -3.41398144	     -9.87617424	     -0.40247429	      0.84037388	     -0.17706384	    -28.52003397	      3.60130715	     -5.28277740	     18.96270304	     -0.17386778	      0.33096160	     22.25820815	      3.10974946	     -7.60817327	      9.33537674	     -3.77103318	    -13.25509725	     11.96659802	      5.98253895	      0.20885654	      6.53585782	     -5.61344797	     -7.60817327	    -22.96275636	     -0.79857856	     15.27978338	     20.87516734	    -11.22771555	      9.49496847	     47.02816948	     90.00000001	      0.00000000	      0.00000000	     -9.24304131	     -1.03017444	    -20.38190003	     17.90360140	     90.00000001	      0.00000000	      0.00000000
      0.70000000	     11.33405194	     -3.04831436	     -9.86787650	     -0.39065328	      0.84103184	     -0.17707989	    -28.32199251	      2.98689154	     -5.28501877	     20.96204011	     -0.31406744	      0.36585662	     20.81676044	      2.72860768	     -7.60530680	      9.08321044	     -3.15273202	    -12.64330672	     13.11718842	      5.83027943	      0.22893813	      6.37641483	     -5.96035401	     -7.60530680	    -23.01171317	     -1.31443096	     15.21607280	     20.07707303	    -11.06062018	      9.05911893	     46.24751574	     90.00000001	      0.00000000	      0.00000000	     -8.72222671	     -1.21637946	    -20.50385936	     17.77039582	     90.00000001	      0.00000000	      0.00000000
      0.71000000	     11.50774075	     -2.81819174	     -9.80685597	     -0.37890995	      0.84209418	     -0.17717468	    -28.08106033	      2.45157635	     -4.97448704	     23.20790611	     -0.21767047	      0.40505437	     19.14939385	      2.33138782	     -7.60340342	      8.70463803	     -2.70597532	    -11.91745511	     14.26224443	      5.76184320	      0.24892312	      6.55758253	     -6.29043155	     -7.60340342	    -23.20061755	     -1.67758954	     15.12906700	     19.26099376	    -10.94439931	      8.75930898	     45.46481475	     90.00000001	      0.00000000	      0.00000000	     -8.13928255	     -1.38663095	    -20.48247593	     17.76254382	     90.00000001	      0.00000000	      0.00000000
      0.72000000	     11.64596397	     -2.40112536	     -9.75471125	     -0.36715741	      0.84335095	     -0.17727740	    -27.53409699	      1.79594328	     -4.76227632	     25.81901632	     -0.33259305	      0.45062684	     16.81833129	      0.92353100	     -7.60098662	      8.32355761	     -2.03354954	    -10.96723286	     15.27157304	      5.70514705	      0.26653923	      6.52879377	     -7.16866377	     -7.60098662	    -23.32007772	     -2.23969274	     15.03741758	     18.38162870	    -10.75670901	      8.22072897	     44.47399148	     90.00000001	      0.00000000	      0.00000000	     -7.36449924	     -1.63113727	    -20.51403565	     17.54630829	     90.00000001	      0.00000000	      0.00000000
      0.73000000	     11.83493001	     -2.12203812	     -9.72520003	     -0.35541873	      0.84487666	     -0.17740849	    -26.90562132	      1.18450229	     -4.19008310	     28.65427049	     -0.17888161	      0.50011136	     14.28067119	     -0.42565984	     -7.59899951	      7.76132570	     -1.52669920	     -9.85167528	     16.12070137	      5.76627520	      0.28135932	      6.83911787	     -8.11257478	     -7.59899951	    -23.52150181	     -2.64851735	     14.97272690	     17.48441352	    -10.60296890	      7.84422574	     43.46019014	     90.00000001	      0.00000000	      0.00000000	     -6.59134977	     -1.82145998	    -20.44852246	     17.46801660	     90.00000001	      0.00000000	      0.00000000
      0.74000000	     12.33124780	     -2.03065355	     -9.48750125	     -0.34384464	      0.84696317	     -0.17783961	    -26.67313955	      0.76078824	     -3.16576629	     31.26464584	      0.33041662	      0.54567101	     12.63072575	     -0.92468446	     -7.59830248	      6.82342709	     -1.20160436	     -8.70465831	     16.98392047	      5.96809590	      0.29642533	      7.24139391	     -8.44981638	     -7.59830248	    -24.14540307	     -2.82307761	     14.71832634	     16.62036808	    -10.56760735	      7.66688660	     42.64400731	     90.00000001	      0.00000000	      0.00000000	     -5.76387638	     -1.98579965	    -20.33722787	     17.58643921	     90.00000001	      0.00000000	      0.00000000
      0.75000000	     12.08363719	     -1.58189852	     -9.48168156	     -0.33235912	      0.84811450	     -0.17812900	    -24.92830422	     -0.06333414	     -2.73360485	     35.12331809	      0.62815327	      0.61301754	      9.10569841	     -4.03916561	     -7.59597973	      6.49619960	     -0.50296258	     -7.44090903	     17.19730363	      6.03705548	      0.30014957	      7.44443492	    -10.02541891	     -7.59597973	    -23.82502521	     -3.29643941	     14.65721663	     15.65192366	    -10.32083491	      7.19420323	     41.24041237	     90.00000001	      0.00000000	      0.00000000	     -4.83655018	     -2.26988278	    -19.98591732	     17.46072305	     90.00000001	      0.00000000	      0.00000000
      0.76000000	     12.25464189	     -1.54660903	     -9.07679783	     -0.32139815	      0.85014822	     -0.17865657	    -24.02792878	     -0.33108245	     -0.67810987	     38.08917823	      1.98475389	      0.66478157	      6.04551530	     -8.47536118	     -7.58840042	      5.43785671	     -0.22592792	     -4.86561155	     16.92313144	      6.50927879	      0.29536436	      6.77226943	    -12.93522177	     -7.58840042	    -24.16647237	     -3.30717803	     14.30210696	     14.83937445	    -10.09982107	      6.50117628	     40.10312519	     90.00000001	      0.00000000	      0.00000000	     -3.90415138	     -2.53524209	    -19.00563571	     17.66131776	     90.00000001	      0.00000000	      0.00000000
      0.77000000	     12.40197482	     -1.29618204	     -8.99936543	     -0.31019807	      0.85180262	     -0.17910881	    -22.68205128	     -1.05954152	      0.17660572	     41.64885018	      2.75430869	      0.72690957	      4.24357409	     -9.66436324	     -7.58574719	      4.43299775	      0.26558474	     -4.32251733	     16.77886932	      6.59831714	      0.29284651	      7.45615618	    -12.93930851	     -7.58574719	    -24.34803502	     -3.58136639	     14.10501953	     13.96664082	    -10.00979995	      6.47104841	     38.90267045	     90.00000001	      0.00000000	      0.00000000	     -2.97701870	     -2.74612176	    -18.48576931	     17.87443691	     90.00000001	      0.00000000	      0.00000000
      0.78000000	     12.47919088	     -1.09213537	     -8.80105766	     -0.29930889	      0.85332115	     -0.17972548	    -21.19181620	     -1.68947009	      1.25279775	     45.14660899	      3.78153321	      0.78795697	      2.79866510	    -11.24571175	     -7.58353783	      3.44769842	      0.66786495	     -3.81707823	     16.49682183	      6.74687785	      0.28792386	      8.12170583	    -12.89036307	     -7.58353783	    -24.50105998	     -3.74012035	     13.78853205	     13.12055297	     -9.90626515	      6.32060756	     37.72871748	     90.00000001	      0.00000000	      0.00000000	     -1.99003200	     -2.96872135	    -17.89790411	     18.17778378	     90.00000001	      0.00000000	      0.00000000
      0.79000000	     12.49608072	     -0.97172582	     -8.42422177	     -0.28885023	      0.85484724	     -0.18050915	    -19.66975598	     -2.12258669	      2.82919521	     48.33504544	      5.27102345	      0.84360569	      1.25863912	    -14.61665888	     -7.57843166	      2.47206800	      1.01883636	     -3.07373361	     16.05419577	      6.77494983	      0.28019857	      8.05435129	    -13.44937094	     -7.57843166	    -24.68138612	     -3.74701020	     13.33052290	     12.34882294	     -9.72458384	      5.80277550	     36.60804261	     90.00000001	      0.00000000	      0.00000000	     -1.09022228	     -3.28057415	    -16.27107641	     18.72760879	     90.00000001	      0.00000000	      0.00000000
      0.80000000	     12.91397677	     -1.21571594	     -7.82960403	     -0.27830454	      0.85676829	     -0.18142839	    -18.71387478	     -2.07242772	      3.27524576	     51.07709660	      5.94283355	      0.89146351	      1.34592917	    -14.81391402	     -7.57734815	      1.05114684	      0.90700339	     -3.07268096	     15.80921294	      6.85393351	      0.27592282	      8.58755583	    -12.85445570	     -7.57734815	    -25.33420809	     -3.32003061	     12.73985636	     11.54944974	     -9.76138728	      5.74736695	     35.87854092	     90.00000001	      0.00000000	      0.00000000	     -0.01942579	     -3.44174193	    -15.95215568	     19.24193744	     90.00000001	      0.00000000	      0.00000000
